solid component1:solid1
  facet normal 1.000000e+00 -0.000000e+00 -0.000000e+00
    outer loop
      vertex 7.500000e+00 -7.500000e+00 7.500000e+01
      vertex 7.500000e+00 -7.500000e+00 3.250000e+01
      vertex 7.500000e+00 7.500000e+00 3.250000e+01
    endloop
  endfacet
  facet normal 1.000000e+00 -0.000000e+00 -0.000000e+00
    outer loop
      vertex 7.500000e+00 -7.500000e+00 7.500000e+01
      vertex 7.500000e+00 7.500000e+00 3.250000e+01
      vertex 7.500000e+00 7.500000e+00 7.500000e+01
    endloop
  endfacet
  facet normal -0.000000e+00 1.000000e+00 -0.000000e+00
    outer loop
      vertex 7.500000e+00 7.500000e+00 7.500000e+01
      vertex 7.500000e+00 7.500000e+00 3.250000e+01
      vertex -7.500000e+00 7.500000e+00 3.250000e+01
    endloop
  endfacet
  facet normal -0.000000e+00 1.000000e+00 -0.000000e+00
    outer loop
      vertex 7.500000e+00 7.500000e+00 7.500000e+01
      vertex -7.500000e+00 7.500000e+00 3.250000e+01
      vertex -7.500000e+00 7.500000e+00 7.500000e+01
    endloop
  endfacet
  facet normal -1.000000e+00 -0.000000e+00 -0.000000e+00
    outer loop
      vertex -7.500000e+00 7.500000e+00 7.500000e+01
      vertex -7.500000e+00 7.500000e+00 3.250000e+01
      vertex -7.500000e+00 -7.500000e+00 3.250000e+01
    endloop
  endfacet
  facet normal -1.000000e+00 -0.000000e+00 -0.000000e+00
    outer loop
      vertex -7.500000e+00 7.500000e+00 7.500000e+01
      vertex -7.500000e+00 -7.500000e+00 3.250000e+01
      vertex -7.500000e+00 -7.500000e+00 7.500000e+01
    endloop
  endfacet
  facet normal -0.000000e+00 -1.000000e+00 -0.000000e+00
    outer loop
      vertex -7.500000e+00 -7.500000e+00 7.500000e+01
      vertex -7.500000e+00 -7.500000e+00 3.250000e+01
      vertex 7.500000e+00 -7.500000e+00 3.250000e+01
    endloop
  endfacet
  facet normal -0.000000e+00 -1.000000e+00 -0.000000e+00
    outer loop
      vertex -7.500000e+00 -7.500000e+00 7.500000e+01
      vertex 7.500000e+00 -7.500000e+00 3.250000e+01
      vertex 7.500000e+00 -7.500000e+00 7.500000e+01
    endloop
  endfacet
  facet normal -0.000000e+00 -0.000000e+00 -1.000000e+00
    outer loop
      vertex 7.500000e+00 7.500000e+00 3.250000e+01
      vertex 7.500000e+00 -7.500000e+00 3.250000e+01
      vertex -7.500000e+00 -7.500000e+00 3.250000e+01
    endloop
  endfacet
  facet normal -0.000000e+00 -0.000000e+00 -1.000000e+00
    outer loop
      vertex 7.500000e+00 7.500000e+00 3.250000e+01
      vertex -7.500000e+00 -7.500000e+00 3.250000e+01
      vertex -7.500000e+00 7.500000e+00 3.250000e+01
    endloop
  endfacet
  facet normal 0.000000e+00 0.000000e+00 1.000000e+00
    outer loop
      vertex 7.500000e+00 -7.500000e+00 7.500000e+01
      vertex 7.500000e+00 7.500000e+00 7.500000e+01
      vertex -7.500000e+00 7.500000e+00 7.500000e+01
    endloop
  endfacet
  facet normal 0.000000e+00 0.000000e+00 1.000000e+00
    outer loop
      vertex 7.500000e+00 -7.500000e+00 7.500000e+01
      vertex -7.500000e+00 7.500000e+00 7.500000e+01
      vertex -7.500000e+00 -7.500000e+00 7.500000e+01
    endloop
  endfacet
endsolid component1:solid1
solid component1:solid2
  facet normal 1.000000e+00 -0.000000e+00 -0.000000e+00
    outer loop
      vertex 2.500000e+01 -2.500000e+01 1.500000e+01
      vertex 2.500000e+01 -2.500000e+01 -1.500000e+01
      vertex 2.500000e+01 2.500000e+01 -1.500000e+01
    endloop
  endfacet
  facet normal 1.000000e+00 -0.000000e+00 -0.000000e+00
    outer loop
      vertex 2.500000e+01 -2.500000e+01 1.500000e+01
      vertex 2.500000e+01 2.500000e+01 -1.500000e+01
      vertex 2.500000e+01 2.500000e+01 1.500000e+01
    endloop
  endfacet
  facet normal -0.000000e+00 1.000000e+00 -0.000000e+00
    outer loop
      vertex 2.500000e+01 2.500000e+01 1.500000e+01
      vertex 2.500000e+01 2.500000e+01 -1.500000e+01
      vertex -2.500000e+01 2.500000e+01 -1.500000e+01
    endloop
  endfacet
  facet normal -0.000000e+00 1.000000e+00 -0.000000e+00
    outer loop
      vertex 2.500000e+01 2.500000e+01 1.500000e+01
      vertex -2.500000e+01 2.500000e+01 -1.500000e+01
      vertex -2.500000e+01 2.500000e+01 1.500000e+01
    endloop
  endfacet
  facet normal -1.000000e+00 -0.000000e+00 -0.000000e+00
    outer loop
      vertex -2.500000e+01 2.500000e+01 1.500000e+01
      vertex -2.500000e+01 2.500000e+01 -1.500000e+01
      vertex -2.500000e+01 -2.500000e+01 -1.500000e+01
    endloop
  endfacet
  facet normal -1.000000e+00 -0.000000e+00 -0.000000e+00
    outer loop
      vertex -2.500000e+01 2.500000e+01 1.500000e+01
      vertex -2.500000e+01 -2.500000e+01 -1.500000e+01
      vertex -2.500000e+01 -2.500000e+01 1.500000e+01
    endloop
  endfacet
  facet normal -0.000000e+00 -1.000000e+00 0.000000e+00
    outer loop
      vertex -2.500000e+01 -2.500000e+01 1.500000e+01
      vertex -2.500000e+01 -2.500000e+01 -1.500000e+01
      vertex 2.500000e+01 -2.500000e+01 -1.500000e+01
    endloop
  endfacet
  facet normal -0.000000e+00 -1.000000e+00 0.000000e+00
    outer loop
      vertex -2.500000e+01 -2.500000e+01 1.500000e+01
      vertex 2.500000e+01 -2.500000e+01 -1.500000e+01
      vertex 2.500000e+01 -2.500000e+01 1.500000e+01
    endloop
  endfacet
  facet normal -0.000000e+00 -0.000000e+00 -1.000000e+00
    outer loop
      vertex 2.500000e+01 2.500000e+01 -1.500000e+01
      vertex 2.500000e+01 -2.500000e+01 -1.500000e+01
      vertex -2.500000e+01 -2.500000e+01 -1.500000e+01
    endloop
  endfacet
  facet normal -0.000000e+00 -0.000000e+00 -1.000000e+00
    outer loop
      vertex 2.500000e+01 2.500000e+01 -1.500000e+01
      vertex -2.500000e+01 -2.500000e+01 -1.500000e+01
      vertex -2.500000e+01 2.500000e+01 -1.500000e+01
    endloop
  endfacet
  facet normal 0.000000e+00 0.000000e+00 1.000000e+00
    outer loop
      vertex 2.500000e+01 -2.500000e+01 1.500000e+01
      vertex 2.500000e+01 2.500000e+01 1.500000e+01
      vertex -2.500000e+01 2.500000e+01 1.500000e+01
    endloop
  endfacet
  facet normal 0.000000e+00 0.000000e+00 1.000000e+00
    outer loop
      vertex 2.500000e+01 -2.500000e+01 1.500000e+01
      vertex -2.500000e+01 2.500000e+01 1.500000e+01
      vertex -2.500000e+01 -2.500000e+01 1.500000e+01
    endloop
  endfacet
endsolid component1:solid2
solid component1:solid4
  facet normal -0.000000e+00 -0.000000e+00 -1.000000e+00
    outer loop
      vertex 2.500000e+01 2.500000e+01 1.500000e+01
      vertex 2.500000e+01 -2.500000e+01 1.500000e+01
      vertex -2.500000e+01 -2.500000e+01 1.500000e+01
    endloop
  endfacet
  facet normal -0.000000e+00 -0.000000e+00 -1.000000e+00
    outer loop
      vertex 2.500000e+01 2.500000e+01 1.500000e+01
      vertex -2.500000e+01 -2.500000e+01 1.500000e+01
      vertex -2.500000e+01 2.500000e+01 1.500000e+01
    endloop
  endfacet
  facet normal 0.000000e+00 0.000000e+00 1.000000e+00
    outer loop
      vertex -7.500000e+00 -7.500000e+00 3.250000e+01
      vertex 7.500000e+00 -7.500000e+00 3.250000e+01
      vertex 7.500000e+00 7.500000e+00 3.250000e+01
    endloop
  endfacet
  facet normal 0.000000e+00 0.000000e+00 1.000000e+00
    outer loop
      vertex -7.500000e+00 -7.500000e+00 3.250000e+01
      vertex 7.500000e+00 7.500000e+00 3.250000e+01
      vertex -7.500000e+00 7.500000e+00 3.250000e+01
    endloop
  endfacet
  facet normal 7.071068e-01 -0.000000e+00 7.071068e-01
    outer loop
      vertex 2.500000e+01 2.500000e+01 1.500000e+01
      vertex 7.500000e+00 7.500000e+00 3.250000e+01
      vertex 7.500000e+00 -7.500000e+00 3.250000e+01
    endloop
  endfacet
  facet normal 7.071068e-01 -0.000000e+00 7.071068e-01
    outer loop
      vertex 2.500000e+01 2.500000e+01 1.500000e+01
      vertex 7.500000e+00 -7.500000e+00 3.250000e+01
      vertex 2.500000e+01 -2.500000e+01 1.500000e+01
    endloop
  endfacet
  facet normal 0.000000e+00 7.071068e-01 7.071068e-01
    outer loop
      vertex -2.500000e+01 2.500000e+01 1.500000e+01
      vertex -7.500000e+00 7.500000e+00 3.250000e+01
      vertex 7.500000e+00 7.500000e+00 3.250000e+01
    endloop
  endfacet
  facet normal 0.000000e+00 7.071068e-01 7.071068e-01
    outer loop
      vertex -2.500000e+01 2.500000e+01 1.500000e+01
      vertex 7.500000e+00 7.500000e+00 3.250000e+01
      vertex 2.500000e+01 2.500000e+01 1.500000e+01
    endloop
  endfacet
  facet normal -7.071068e-01 0.000000e+00 7.071068e-01
    outer loop
      vertex -2.500000e+01 -2.500000e+01 1.500000e+01
      vertex -7.500000e+00 -7.500000e+00 3.250000e+01
      vertex -7.500000e+00 7.500000e+00 3.250000e+01
    endloop
  endfacet
  facet normal -7.071068e-01 0.000000e+00 7.071068e-01
    outer loop
      vertex -2.500000e+01 -2.500000e+01 1.500000e+01
      vertex -7.500000e+00 7.500000e+00 3.250000e+01
      vertex -2.500000e+01 2.500000e+01 1.500000e+01
    endloop
  endfacet
  facet normal 0.000000e+00 -7.071068e-01 7.071068e-01
    outer loop
      vertex 2.500000e+01 -2.500000e+01 1.500000e+01
      vertex 7.500000e+00 -7.500000e+00 3.250000e+01
      vertex -7.500000e+00 -7.500000e+00 3.250000e+01
    endloop
  endfacet
  facet normal 0.000000e+00 -7.071068e-01 7.071068e-01
    outer loop
      vertex 2.500000e+01 -2.500000e+01 1.500000e+01
      vertex -7.500000e+00 -7.500000e+00 3.250000e+01
      vertex -2.500000e+01 -2.500000e+01 1.500000e+01
    endloop
  endfacet
endsolid component1:solid4
solid component1/component1:solid1
  facet normal 1.000000e+00 -0.000000e+00 -0.000000e+00
    outer loop
      vertex 7.500000e+00 7.500000e+00 -3.250000e+01
      vertex 7.500000e+00 -7.500000e+00 -5.000000e+01
      vertex 7.500000e+00 7.500000e+00 -5.000000e+01
    endloop
  endfacet
  facet normal 1.000000e+00 -0.000000e+00 -0.000000e+00
    outer loop
      vertex 7.500000e+00 -7.500000e+00 -3.250000e+01
      vertex 7.500000e+00 -7.500000e+00 -5.000000e+01
      vertex 7.500000e+00 7.500000e+00 -3.250000e+01
    endloop
  endfacet
  facet normal -0.000000e+00 1.000000e+00 -0.000000e+00
    outer loop
      vertex -7.500000e+00 7.500000e+00 -3.250000e+01
      vertex 7.500000e+00 7.500000e+00 -5.000000e+01
      vertex -7.500000e+00 7.500000e+00 -5.000000e+01
    endloop
  endfacet
  facet normal -0.000000e+00 1.000000e+00 -0.000000e+00
    outer loop
      vertex 7.500000e+00 7.500000e+00 -3.250000e+01
      vertex 7.500000e+00 7.500000e+00 -5.000000e+01
      vertex -7.500000e+00 7.500000e+00 -3.250000e+01
    endloop
  endfacet
  facet normal -1.000000e+00 -0.000000e+00 0.000000e+00
    outer loop
      vertex -7.500000e+00 -7.500000e+00 -3.250000e+01
      vertex -7.500000e+00 7.500000e+00 -5.000000e+01
      vertex -7.500000e+00 -7.500000e+00 -5.000000e+01
    endloop
  endfacet
  facet normal -1.000000e+00 -0.000000e+00 0.000000e+00
    outer loop
      vertex -7.500000e+00 7.500000e+00 -3.250000e+01
      vertex -7.500000e+00 7.500000e+00 -5.000000e+01
      vertex -7.500000e+00 -7.500000e+00 -3.250000e+01
    endloop
  endfacet
  facet normal -0.000000e+00 -1.000000e+00 0.000000e+00
    outer loop
      vertex 7.500000e+00 -7.500000e+00 -3.250000e+01
      vertex -7.500000e+00 -7.500000e+00 -5.000000e+01
      vertex 7.500000e+00 -7.500000e+00 -5.000000e+01
    endloop
  endfacet
  facet normal -0.000000e+00 -1.000000e+00 0.000000e+00
    outer loop
      vertex -7.500000e+00 -7.500000e+00 -3.250000e+01
      vertex -7.500000e+00 -7.500000e+00 -5.000000e+01
      vertex 7.500000e+00 -7.500000e+00 -3.250000e+01
    endloop
  endfacet
  facet normal -0.000000e+00 -0.000000e+00 1.000000e+00
    outer loop
      vertex 7.500000e+00 -7.500000e+00 -3.250000e+01
      vertex -7.500000e+00 7.500000e+00 -3.250000e+01
      vertex -7.500000e+00 -7.500000e+00 -3.250000e+01
    endloop
  endfacet
  facet normal -0.000000e+00 -0.000000e+00 1.000000e+00
    outer loop
      vertex 7.500000e+00 7.500000e+00 -3.250000e+01
      vertex -7.500000e+00 7.500000e+00 -3.250000e+01
      vertex 7.500000e+00 -7.500000e+00 -3.250000e+01
    endloop
  endfacet
  facet normal 0.000000e+00 0.000000e+00 -1.000000e+00
    outer loop
      vertex 7.500000e+00 7.500000e+00 -5.000000e+01
      vertex -7.500000e+00 -7.500000e+00 -5.000000e+01
      vertex -7.500000e+00 7.500000e+00 -5.000000e+01
    endloop
  endfacet
  facet normal 0.000000e+00 0.000000e+00 -1.000000e+00
    outer loop
      vertex 7.500000e+00 -7.500000e+00 -5.000000e+01
      vertex -7.500000e+00 -7.500000e+00 -5.000000e+01
      vertex 7.500000e+00 7.500000e+00 -5.000000e+01
    endloop
  endfacet
endsolid component1/component1:solid1
solid component1/component1:solid2
  facet normal 1.000000e+00 -0.000000e+00 -0.000000e+00
    outer loop
      vertex 2.500000e+01 2.500000e+01 1.500000e+01
      vertex 2.500000e+01 -2.500000e+01 -1.500000e+01
      vertex 2.500000e+01 2.500000e+01 -1.500000e+01
    endloop
  endfacet
  facet normal 1.000000e+00 -0.000000e+00 -0.000000e+00
    outer loop
      vertex 2.500000e+01 -2.500000e+01 1.500000e+01
      vertex 2.500000e+01 -2.500000e+01 -1.500000e+01
      vertex 2.500000e+01 2.500000e+01 1.500000e+01
    endloop
  endfacet
  facet normal -0.000000e+00 1.000000e+00 -0.000000e+00
    outer loop
      vertex -2.500000e+01 2.500000e+01 1.500000e+01
      vertex 2.500000e+01 2.500000e+01 -1.500000e+01
      vertex -2.500000e+01 2.500000e+01 -1.500000e+01
    endloop
  endfacet
  facet normal -0.000000e+00 1.000000e+00 -0.000000e+00
    outer loop
      vertex 2.500000e+01 2.500000e+01 1.500000e+01
      vertex 2.500000e+01 2.500000e+01 -1.500000e+01
      vertex -2.500000e+01 2.500000e+01 1.500000e+01
    endloop
  endfacet
  facet normal -1.000000e+00 -0.000000e+00 0.000000e+00
    outer loop
      vertex -2.500000e+01 -2.500000e+01 1.500000e+01
      vertex -2.500000e+01 2.500000e+01 -1.500000e+01
      vertex -2.500000e+01 -2.500000e+01 -1.500000e+01
    endloop
  endfacet
  facet normal -1.000000e+00 -0.000000e+00 0.000000e+00
    outer loop
      vertex -2.500000e+01 2.500000e+01 1.500000e+01
      vertex -2.500000e+01 2.500000e+01 -1.500000e+01
      vertex -2.500000e+01 -2.500000e+01 1.500000e+01
    endloop
  endfacet
  facet normal -0.000000e+00 -1.000000e+00 -0.000000e+00
    outer loop
      vertex 2.500000e+01 -2.500000e+01 1.500000e+01
      vertex -2.500000e+01 -2.500000e+01 -1.500000e+01
      vertex 2.500000e+01 -2.500000e+01 -1.500000e+01
    endloop
  endfacet
  facet normal -0.000000e+00 -1.000000e+00 -0.000000e+00
    outer loop
      vertex -2.500000e+01 -2.500000e+01 1.500000e+01
      vertex -2.500000e+01 -2.500000e+01 -1.500000e+01
      vertex 2.500000e+01 -2.500000e+01 1.500000e+01
    endloop
  endfacet
  facet normal -0.000000e+00 -0.000000e+00 1.000000e+00
    outer loop
      vertex 2.500000e+01 -2.500000e+01 1.500000e+01
      vertex -2.500000e+01 2.500000e+01 1.500000e+01
      vertex -2.500000e+01 -2.500000e+01 1.500000e+01
    endloop
  endfacet
  facet normal -0.000000e+00 -0.000000e+00 1.000000e+00
    outer loop
      vertex 2.500000e+01 2.500000e+01 1.500000e+01
      vertex -2.500000e+01 2.500000e+01 1.500000e+01
      vertex 2.500000e+01 -2.500000e+01 1.500000e+01
    endloop
  endfacet
  facet normal 0.000000e+00 0.000000e+00 -1.000000e+00
    outer loop
      vertex 2.500000e+01 2.500000e+01 -1.500000e+01
      vertex -2.500000e+01 -2.500000e+01 -1.500000e+01
      vertex -2.500000e+01 2.500000e+01 -1.500000e+01
    endloop
  endfacet
  facet normal 0.000000e+00 0.000000e+00 -1.000000e+00
    outer loop
      vertex 2.500000e+01 -2.500000e+01 -1.500000e+01
      vertex -2.500000e+01 -2.500000e+01 -1.500000e+01
      vertex 2.500000e+01 2.500000e+01 -1.500000e+01
    endloop
  endfacet
endsolid component1/component1:solid2
solid component1/component1:solid4
  facet normal -0.000000e+00 -0.000000e+00 1.000000e+00
    outer loop
      vertex 2.500000e+01 -2.500000e+01 -1.500000e+01
      vertex -2.500000e+01 2.500000e+01 -1.500000e+01
      vertex -2.500000e+01 -2.500000e+01 -1.500000e+01
    endloop
  endfacet
  facet normal -0.000000e+00 -0.000000e+00 1.000000e+00
    outer loop
      vertex 2.500000e+01 2.500000e+01 -1.500000e+01
      vertex -2.500000e+01 2.500000e+01 -1.500000e+01
      vertex 2.500000e+01 -2.500000e+01 -1.500000e+01
    endloop
  endfacet
  facet normal 0.000000e+00 0.000000e+00 -1.000000e+00
    outer loop
      vertex 7.500000e+00 7.500000e+00 -3.250000e+01
      vertex -7.500000e+00 -7.500000e+00 -3.250000e+01
      vertex -7.500000e+00 7.500000e+00 -3.250000e+01
    endloop
  endfacet
  facet normal 0.000000e+00 0.000000e+00 -1.000000e+00
    outer loop
      vertex 7.500000e+00 -7.500000e+00 -3.250000e+01
      vertex -7.500000e+00 -7.500000e+00 -3.250000e+01
      vertex 7.500000e+00 7.500000e+00 -3.250000e+01
    endloop
  endfacet
  facet normal 7.071068e-01 -0.000000e+00 -7.071068e-01
    outer loop
      vertex 2.500000e+01 -2.500000e+01 -1.500000e+01
      vertex 7.500000e+00 7.500000e+00 -3.250000e+01
      vertex 2.500000e+01 2.500000e+01 -1.500000e+01
    endloop
  endfacet
  facet normal 7.071068e-01 -0.000000e+00 -7.071068e-01
    outer loop
      vertex 7.500000e+00 -7.500000e+00 -3.250000e+01
      vertex 7.500000e+00 7.500000e+00 -3.250000e+01
      vertex 2.500000e+01 -2.500000e+01 -1.500000e+01
    endloop
  endfacet
  facet normal 0.000000e+00 7.071068e-01 -7.071068e-01
    outer loop
      vertex 2.500000e+01 2.500000e+01 -1.500000e+01
      vertex -7.500000e+00 7.500000e+00 -3.250000e+01
      vertex -2.500000e+01 2.500000e+01 -1.500000e+01
    endloop
  endfacet
  facet normal 0.000000e+00 7.071068e-01 -7.071068e-01
    outer loop
      vertex 7.500000e+00 7.500000e+00 -3.250000e+01
      vertex -7.500000e+00 7.500000e+00 -3.250000e+01
      vertex 2.500000e+01 2.500000e+01 -1.500000e+01
    endloop
  endfacet
  facet normal -7.071068e-01 0.000000e+00 -7.071068e-01
    outer loop
      vertex -2.500000e+01 2.500000e+01 -1.500000e+01
      vertex -7.500000e+00 -7.500000e+00 -3.250000e+01
      vertex -2.500000e+01 -2.500000e+01 -1.500000e+01
    endloop
  endfacet
  facet normal -7.071068e-01 0.000000e+00 -7.071068e-01
    outer loop
      vertex -7.500000e+00 7.500000e+00 -3.250000e+01
      vertex -7.500000e+00 -7.500000e+00 -3.250000e+01
      vertex -2.500000e+01 2.500000e+01 -1.500000e+01
    endloop
  endfacet
  facet normal 0.000000e+00 -7.071068e-01 -7.071068e-01
    outer loop
      vertex -2.500000e+01 -2.500000e+01 -1.500000e+01
      vertex 7.500000e+00 -7.500000e+00 -3.250000e+01
      vertex 2.500000e+01 -2.500000e+01 -1.500000e+01
    endloop
  endfacet
  facet normal 0.000000e+00 -7.071068e-01 -7.071068e-01
    outer loop
      vertex -7.500000e+00 -7.500000e+00 -3.250000e+01
      vertex 7.500000e+00 -7.500000e+00 -3.250000e+01
      vertex -2.500000e+01 -2.500000e+01 -1.500000e+01
    endloop
  endfacet
endsolid component1/component1:solid4
